<?xml version="1.0" standalone="no"?><!DOCTYPE svg PUBLIC "-//W3C//DTD SVG 1.1//EN" "http://www.w3.org/Graphics/SVG/1.1/DTD/svg11.dtd"><svg class="icon" width="200px" height="200.00px" viewBox="0 0 1024 1024" version="1.1" xmlns="http://www.w3.org/2000/svg"><path d="M1024 631.99v-239.98c0.004-7.64-3.05-15.486-8.788-21.224l-362-362C647.616 3.192 639.82-0.002 631.996 0H392.004c-8.176-0.002-15.906 3.476-21.218 8.786l-362 362A30.168 30.168 0 0 0 0 392.01v239.98c-0.004 8.03 3.34 15.776 8.788 21.224l362 362c5.716 5.716 13.6 8.786 21.212 8.786h240c7.74 0 15.554-3.128 21.212-8.786l362-362c5.454-5.454 8.792-13.23 8.788-21.224zM645.238 938.336l-38.962-118.186 213.876-213.876 118.186 38.962z m-266.476 0L85.664 645.238l118.186-38.962 213.876 213.876z m0-852.672l38.962 118.186-213.874 213.874-118.186-38.962zM60 433.478l122 40.22v76.604l-122 40.22zM464.426 782L242 559.574v-95.148L464.426 242h95.148L782 464.426v95.148L559.574 782z m180.812-696.336l293.098 293.098-118.186 38.962-213.874-213.874zM964 590.522l-122-40.22v-76.604l122-40.22zM590.522 60l-40.218 122h-76.606L433.48 60z m-157.044 904l40.218-122h76.606l40.218 122z" fill="#59bbee" /></svg>